<svg width="300" viewBox="0 0 1087 253" fill="none" xmlns="http://www.w3.org/2000/svg">
<path d="M204.5 194.7C203.2 192.6 203 186.7 203.2 150.4L203.5 108.5L220.3 108.2C229.5 108.1 237 107.7 237 107.4C237 107.1 234.6 104 231.6 100.7C228.7 97.3 221 88.2 214.6 80.5L203 66.5V58.4C203 51.9 203.4 50 204.8 48.8C206.3 47.4 212.6 47.2 254.2 47.1L301.9 46.9L303.4 49.2C305.1 52 305.6 70 304 73.1C303 74.9 301.7 75 275 75C259.6 75 247 75.3 247 75.6C247 75.9 249.8 79.4 253.3 83.4C256.7 87.4 262.8 94.6 266.9 99.3L274.2 108H279.9C283 108 286.1 108.5 286.8 109.2C288.7 111.1 288.4 132.4 286.4 134.4C285.1 135.8 281.1 136 257.9 136H231V165.3C231 186.8 230.7 194.9 229.8 195.8C229 196.6 224.8 197 217.3 197C206.6 197 206 196.9 204.5 194.7Z" fill="white"/>
<circle cx="377.5" cy="121.5" r="60.5" stroke="white" stroke-width="28"/>
<path d="M470.4 175.7C477.3 185.1 485.6 190.4 499 194.1C511.7 197.5 525.6 195.8 538.9 189.1C547.7 184.6 554.8 176.3 558.8 168.2C562.8 160.1 562.8 105.1 562.8 105.1C563 54.3 562.9 49.6 561.4 47.9C559.9 46.3 558.2 46 548.9 46C540.5 46 537.8 46.3 536.6 47.6C535.2 49 535 55.3 535 101.9C535.3 119.408 535.26 155.159 532.7 158.1C529.5 162.8 525.1 165.5 518.3 166.9C508.5 168.8 499.5 166.3 493.5 160.1C490.8 157.2 490.5 156.2 490 147.2C489.6 141.9 489.3 117.7 489.2 93.5C489 51.3 488.9 49.4 487 47.9C484.1 45.4 464.2 46.1 462.2 48.7C461.2 50.2 461 60.2 461.5 103.5C462.2 164 462.3 164.8 470.4 175.7Z" fill="white"/>
<path d="M579.6 193.8C578.2 191.9 578 185.9 578 149.3V107H590C596.6 107 602 106.8 602 106.6C602 106.4 596.6 96.9 590 85.4L578 64.5V56.3C578 48.9 578.2 48 580.1 46.9C581.6 46.1 591.2 45.9 613.4 46.3C638.6 46.7 645.6 47.1 650.4 48.5C665.2 52.7 676.6 61.7 682.3 73.7C685.3 80 685.5 81.2 685.5 91C685.4 100.9 685.3 101.9 682.1 107.9C676.5 118.8 665.6 127.8 653.5 131.6C651.3 132.2 649.6 133.2 649.7 133.6C649.8 134.1 656.9 146.8 665.4 161.8C674 176.9 681 190 681 191C681 195.2 678.5 196 666 196C655.5 196 653.9 195.8 652.3 194.1C651.3 193 647.4 186.6 643.6 179.8C639.8 173 635.2 165 633.5 162C631.7 159 627.6 151.8 624.3 146L618.4 135.5L612.2 135.2L606 134.9V163.9C606 188.9 605.8 193.1 604.4 194.4C603.2 195.7 600.5 196 592 196C581.9 196 581 195.8 579.6 193.8ZM646.2 104.4C649.2 103.4 652.1 101.5 654.4 98.9C657.4 95.6 658 94.3 658 90.3C658 86.1 657.6 85.2 653.6 81.5C650.7 78.6 647.7 76.9 644.4 76.1C639.2 74.8 616 73.5 616 74.5C616 74.8 618.4 79.2 621.3 84.3C624.3 89.4 628.4 96.6 630.4 100.3L634.1 107.1L637.8 106.4C639.8 106.1 643.6 105.2 646.2 104.4Z" fill="white"/>
<path d="M693.5 194.4C691.7 192.6 691.9 193.8 691.5 180.7C691.2 172.2 691.5 169.7 692.7 168.5C693.8 167.3 696.9 167 706.1 167H718V120.5V74H705.7C697.5 74 693 73.6 692.2 72.8C690.4 71 690.5 48.6 692.3 47.1C693.3 46.4 705.5 46 732.1 46C767.3 45.9 770.6 46.1 771.7 47.7C772.6 48.8 773 53 773 60.1C773 74 773 74 757.3 74H746V120.6V167.1L758 166.9C766.5 166.8 770.4 167.1 771.5 168C773.7 169.8 773.7 191.2 771.4 193.4C770.1 194.8 765.9 195 741.2 195C725.4 195.1 708.6 195.3 703.8 195.5C696.9 195.8 694.7 195.6 693.5 194.4Z" fill="white"/>
<path d="M789.1 193.2C788.6 192.2 788.1 162.4 787.9 119.7C787.6 57.7 787.8 47.7 789 47C789.8 46.4 801.8 46 815.5 46C829.3 45.9 850 45.8 861.7 45.8C877.7 45.7 883.3 46 884.4 47C885.7 48 886 50.5 886 59.5C886 69 885.7 70.9 884.2 72.3C882.6 73.8 878.3 74 849.1 74.2L815.9 74.5V90V105.5L848.5 106C876 106.4 881.2 106.7 882 108C883.3 110 883.3 129.6 882 132.1C881 133.9 879.5 134 848.5 134H816V150.4V166.8L850.8 166.3C893.2 165.6 890 164.4 890 180.3C890 188 889.6 191.1 888.4 192.8L886.9 195H838.5C793.2 195 790 194.9 789.1 193.2Z" fill="white"/>
<path d="M897.6 192.8C896.3 190.8 896.1 184.1 896.3 148.5L896.5 106.5L908.3 106.2C914.7 106.1 920 105.8 920 105.5C920 105.3 914.6 95.7 908 84.2L896 63.2V55.7C896 50.2 896.4 47.7 897.6 46.6C898.9 45.2 903 45 927.3 45C959.7 45.1 967.3 46 978.7 51.4C987.8 55.7 996.1 63.8 1000.5 72.5C1003 77.5 1003.6 79.9 1003.9 87.4C1004.1 93.1 1003.7 97.8 1002.9 100.4C998.3 114.5 986.1 126.2 971.7 130.4C969.6 131 967.8 131.9 967.8 132.3C967.8 132.8 974.8 145.4 983.4 160.5C992 175.6 999 188.8 999 189.9C999 194.2 996.6 195 984.1 195C973.8 195 972.1 194.8 970.6 193.1C969.6 192.1 961.6 178.4 952.7 162.8L936.5 134.5L930.3 134.2L924 133.9V162.5C924 180.3 923.6 191.9 923 193.1C922 194.8 920.8 195 910.5 195C899.7 195 899 194.9 897.6 192.8ZM963.5 103.8C966 103.2 969.1 101.2 971.7 98.5C975.4 94.9 976 93.7 976 90C976 78.6 965.2 73 942.8 73C937.9 73 934 73.2 934 73.5C934 73.8 935.1 75.8 936.5 77.9C937.8 80.1 941.5 86.5 944.6 92.2C952.9 107.3 951.9 106.7 963.5 103.8Z" fill="white"/>
<path d="M173.95 48.25V152.885L62.3264 48.25L173.95 48.25Z" fill="#089E39" stroke="#089E39" stroke-width="0.1"/>
</svg>
